<svg xmlns="http://www.w3.org/2000/svg" xmlns:xlink="http://www.w3.org/1999/xlink" width="500" zoomAndPan="magnify" viewBox="0 0 375 374.999991" height="500" preserveAspectRatio="xMidYMid meet" version="1.0"><defs><clipPath id="24dc8ff22f"><path d="M 99 90 L 276 90 L 276 299 L 99 299 Z M 99 90 " clip-rule="nonzero"/></clipPath><clipPath id="a3079a23ee"><path d="M 97.839844 137.9375 L 199.253906 89.238281 L 277.246094 251.65625 L 175.835938 300.355469 Z M 97.839844 137.9375 " clip-rule="nonzero"/></clipPath><clipPath id="2e01a7fc0e"><path d="M 101.894531 135.988281 L 195.195312 91.183594 C 196.269531 90.667969 197.507812 90.601562 198.632812 90.996094 C 199.761719 91.390625 200.683594 92.21875 201.199219 93.292969 L 275.214844 247.421875 C 275.730469 248.496094 275.796875 249.734375 275.402344 250.859375 C 275.007812 251.984375 274.179688 252.910156 273.105469 253.425781 L 179.804688 298.226562 C 178.730469 298.746094 177.492188 298.8125 176.367188 298.417969 C 175.238281 298.023438 174.316406 297.195312 173.800781 296.121094 L 99.785156 141.992188 C 98.710938 139.753906 99.65625 137.0625 101.894531 135.988281 Z M 101.894531 135.988281 " clip-rule="nonzero"/></clipPath><clipPath id="16f6eab09f"><path d="M 125 124 L 156 124 L 156 199 L 125 199 Z M 125 124 " clip-rule="nonzero"/></clipPath><clipPath id="986c8524c2"><path d="M 150.332031 216.34375 L 109.421875 132.828125 L 180.816406 97.855469 L 221.726562 181.375 Z M 150.332031 216.34375 " clip-rule="nonzero"/></clipPath><clipPath id="3af6c9b817"><path d="M 150.332031 216.34375 L 109.421875 132.828125 L 180.816406 97.855469 L 221.726562 181.375 Z M 150.332031 216.34375 " clip-rule="nonzero"/></clipPath><clipPath id="f7e98f95e7"><path d="M 137 118 L 168 118 L 168 170 L 137 170 Z M 137 118 " clip-rule="nonzero"/></clipPath><clipPath id="16c5748596"><path d="M 150.332031 216.34375 L 109.421875 132.828125 L 180.816406 97.855469 L 221.726562 181.375 Z M 150.332031 216.34375 " clip-rule="nonzero"/></clipPath><clipPath id="9e143eb616"><path d="M 150.332031 216.34375 L 109.421875 132.828125 L 180.816406 97.855469 L 221.726562 181.375 Z M 150.332031 216.34375 " clip-rule="nonzero"/></clipPath><clipPath id="ed1d79ef7e"><path d="M 150 112 L 196 112 L 196 198 L 150 198 Z M 150 112 " clip-rule="nonzero"/></clipPath><clipPath id="83a2320a72"><path d="M 150.332031 216.34375 L 109.421875 132.828125 L 180.816406 97.855469 L 221.726562 181.375 Z M 150.332031 216.34375 " clip-rule="nonzero"/></clipPath><clipPath id="55a8c85f2f"><path d="M 150.332031 216.34375 L 109.421875 132.828125 L 180.816406 97.855469 L 221.726562 181.375 Z M 150.332031 216.34375 " clip-rule="nonzero"/></clipPath><clipPath id="9ebf53b8df"><path d="M 163 106 L 210 106 L 210 168 L 163 168 Z M 163 106 " clip-rule="nonzero"/></clipPath><clipPath id="b028e51a0d"><path d="M 150.332031 216.34375 L 109.421875 132.828125 L 180.816406 97.855469 L 221.726562 181.375 Z M 150.332031 216.34375 " clip-rule="nonzero"/></clipPath><clipPath id="450a9dda77"><path d="M 150.332031 216.34375 L 109.421875 132.828125 L 180.816406 97.855469 L 221.726562 181.375 Z M 150.332031 216.34375 " clip-rule="nonzero"/></clipPath><clipPath id="11c499d718"><path d="M 241 220 L 269 220 L 269 255 L 241 255 Z M 241 220 " clip-rule="nonzero"/></clipPath><clipPath id="e45156fa51"><path d="M 201.917969 224.550781 L 264.167969 194.789062 L 293.929688 257.039062 L 231.679688 286.800781 Z M 201.917969 224.550781 " clip-rule="nonzero"/></clipPath><clipPath id="5d75ff2f35"><path d="M 201.917969 224.550781 L 264.167969 194.789062 L 293.929688 257.039062 L 231.679688 286.800781 Z M 201.917969 224.550781 " clip-rule="nonzero"/></clipPath><clipPath id="27027c85d7"><path d="M 201.917969 224.550781 L 264.167969 194.789062 L 293.929688 257.039062 L 231.679688 286.800781 Z M 201.917969 224.550781 " clip-rule="nonzero"/></clipPath><clipPath id="9563a97255"><path d="M 239.898438 226.785156 L 256.003906 219.085938 L 269.890625 248.136719 L 253.789062 255.835938 Z M 239.898438 226.785156 " clip-rule="nonzero"/></clipPath><clipPath id="7f5b300c75"><path d="M 239.957031 226.878906 L 256.011719 219.203125 L 269.832031 248.109375 L 253.777344 255.78125 Z M 239.957031 226.878906 " clip-rule="nonzero"/></clipPath><clipPath id="7d5ce74ab9"><path d="M 239.898438 226.785156 L 256.003906 219.085938 L 269.890625 248.136719 L 253.789062 255.835938 Z M 239.898438 226.785156 " clip-rule="nonzero"/></clipPath><clipPath id="a757562aa5"><path d="M 242.820312 225.507812 L 253.144531 220.570312 C 254.726562 219.816406 256.621094 220.484375 257.378906 222.066406 L 268.4375 245.195312 C 269.191406 246.777344 268.523438 248.671875 266.941406 249.425781 L 256.617188 254.363281 C 255.035156 255.121094 253.140625 254.449219 252.386719 252.871094 L 241.328125 229.742188 C 240.570312 228.160156 241.238281 226.265625 242.820312 225.507812 Z M 242.820312 225.507812 " clip-rule="nonzero"/></clipPath><clipPath id="968c181881"><path d="M 233 233 L 269 233 L 269 262 L 233 262 Z M 233 233 " clip-rule="nonzero"/></clipPath><clipPath id="0cd10544bb"><path d="M 201.917969 224.550781 L 264.167969 194.789062 L 293.929688 257.039062 L 231.679688 286.800781 Z M 201.917969 224.550781 " clip-rule="nonzero"/></clipPath><clipPath id="514175ecad"><path d="M 201.917969 224.550781 L 264.167969 194.789062 L 293.929688 257.039062 L 231.679688 286.800781 Z M 201.917969 224.550781 " clip-rule="nonzero"/></clipPath><clipPath id="47052d0b9f"><path d="M 201.917969 224.550781 L 264.167969 194.789062 L 293.929688 257.039062 L 231.679688 286.800781 Z M 201.917969 224.550781 " clip-rule="nonzero"/></clipPath><clipPath id="17b07d331e"><path d="M 232.148438 246.402344 L 262.191406 232.035156 L 269.890625 248.136719 L 239.84375 262.503906 Z M 232.148438 246.402344 " clip-rule="nonzero"/></clipPath><clipPath id="63c4bfd4f9"><path d="M 232.222656 246.460938 L 262.210938 232.121094 L 269.828125 248.050781 L 239.835938 262.386719 Z M 232.222656 246.460938 " clip-rule="nonzero"/></clipPath><clipPath id="85cc4f5f83"><path d="M 232.148438 246.402344 L 262.191406 232.035156 L 269.890625 248.136719 L 239.84375 262.503906 Z M 232.148438 246.402344 " clip-rule="nonzero"/></clipPath><clipPath id="5314e570c0"><path d="M 235.085938 245.089844 L 259.328125 233.5 C 260.910156 232.742188 262.804688 233.414062 263.558594 234.996094 L 268.4375 245.195312 C 269.191406 246.777344 268.523438 248.671875 266.941406 249.425781 L 242.703125 261.019531 C 241.121094 261.773438 239.226562 261.105469 238.46875 259.523438 L 233.589844 249.324219 C 232.835938 247.742188 233.503906 245.847656 235.085938 245.089844 Z M 235.085938 245.089844 " clip-rule="nonzero"/></clipPath><clipPath id="356edc3c91"><path d="M 237 230 L 259 230 L 259 252 L 237 252 Z M 237 230 " clip-rule="nonzero"/></clipPath><clipPath id="bcbc005f6b"><path d="M 201.917969 224.550781 L 264.167969 194.789062 L 293.929688 257.039062 L 231.679688 286.800781 Z M 201.917969 224.550781 " clip-rule="nonzero"/></clipPath><clipPath id="e64e3ece2b"><path d="M 201.917969 224.550781 L 264.167969 194.789062 L 293.929688 257.039062 L 231.679688 286.800781 Z M 201.917969 224.550781 " clip-rule="nonzero"/></clipPath><clipPath id="5e5eba1d6b"><path d="M 201.917969 224.550781 L 264.167969 194.789062 L 293.929688 257.039062 L 231.679688 286.800781 Z M 201.917969 224.550781 " clip-rule="nonzero"/></clipPath><clipPath id="98f8d46093"><path d="M 236.023438 236.59375 L 252.125 228.894531 L 259.824219 244.996094 L 243.722656 252.695312 Z M 236.023438 236.59375 " clip-rule="nonzero"/></clipPath><clipPath id="ab21266ee1"><path d="M 236.152344 236.640625 L 252.078125 229.023438 L 259.695312 244.949219 L 243.769531 252.566406 Z M 236.152344 236.640625 " clip-rule="nonzero"/></clipPath><clipPath id="18d8eac966"><path d="M 236.023438 236.59375 L 252.125 228.894531 L 259.824219 244.996094 L 243.722656 252.695312 Z M 236.023438 236.59375 " clip-rule="nonzero"/></clipPath><clipPath id="04dc205fb2"><path d="M 239.015625 235.269531 L 249.214844 230.394531 C 250.796875 229.636719 252.691406 230.304688 253.449219 231.886719 L 258.324219 242.085938 C 259.082031 243.667969 258.414062 245.5625 256.832031 246.320312 L 246.632812 251.195312 C 245.050781 251.953125 243.15625 251.285156 242.398438 249.703125 L 237.523438 239.503906 C 236.765625 237.921875 237.433594 236.027344 239.015625 235.269531 Z M 239.015625 235.269531 " clip-rule="nonzero"/></clipPath></defs><rect x="-37.5" width="450" fill="#ffffff" y="-37.499999" height="449.999989" fill-opacity="1"/><rect x="-37.5" width="450" fill="#d9d9d9" y="-37.499999" height="449.999989" fill-opacity="1"/><g clip-path="url(#24dc8ff22f)"><g clip-path="url(#a3079a23ee)"><g clip-path="url(#2e01a7fc0e)"><path fill="#000000" d="M 97.839844 137.9375 L 199.253906 89.238281 L 277.246094 251.65625 L 175.835938 300.355469 Z M 97.839844 137.9375 " fill-opacity="1" fill-rule="nonzero"/></g></g></g><g clip-path="url(#16f6eab09f)"><g clip-path="url(#986c8524c2)"><g clip-path="url(#3af6c9b817)"><path fill="#737373" d="M 154.792969 185.957031 C 152.871094 182.035156 148.371094 180.238281 144.324219 181.574219 L 137.835938 168.328125 L 143.253906 158.648438 C 143.453125 158.28125 143.433594 157.914062 143.261719 157.566406 L 127.53125 125.449219 C 127.253906 124.882812 126.539062 124.636719 125.972656 124.914062 C 125.40625 125.191406 125.160156 125.90625 125.441406 126.472656 L 140.914062 158.066406 L 135.496094 167.742188 C 135.300781 168.109375 135.316406 168.480469 135.488281 168.828125 L 142.253906 182.640625 C 138.71875 185.023438 137.378906 189.675781 139.300781 193.597656 C 141.390625 197.871094 146.585938 199.648438 150.855469 197.554688 C 155.128906 195.464844 156.882812 190.226562 154.792969 185.957031 Z M 141.414062 192.507812 C 139.898438 189.414062 141.1875 185.648438 144.28125 184.132812 C 147.375 182.617188 151.140625 183.910156 152.65625 187.003906 C 154.171875 190.097656 152.882812 193.863281 149.789062 195.378906 C 146.695312 196.894531 142.953125 195.648438 141.414062 192.507812 Z M 141.414062 192.507812 " fill-opacity="1" fill-rule="nonzero"/></g></g></g><g clip-path="url(#f7e98f95e7)"><g clip-path="url(#16c5748596)"><g clip-path="url(#9e143eb616)"><path fill="#737373" d="M 137.554688 120.539062 L 153.925781 153.960938 C 150.390625 156.34375 149.050781 160.996094 150.972656 164.917969 C 153.0625 169.1875 158.257812 170.96875 162.527344 168.875 C 166.796875 166.785156 168.574219 161.589844 166.484375 157.320312 C 164.5625 153.398438 160.0625 151.605469 156.015625 152.9375 L 139.644531 119.515625 C 139.367188 118.949219 138.652344 118.703125 138.085938 118.980469 C 137.519531 119.257812 137.277344 119.972656 137.554688 120.539062 Z M 164.394531 158.34375 C 165.90625 161.4375 164.617188 165.203125 161.523438 166.71875 C 158.429688 168.234375 154.621094 166.96875 153.105469 163.871094 C 151.589844 160.777344 152.878906 157.015625 155.972656 155.5 C 159.113281 153.960938 162.878906 155.25 164.394531 158.34375 Z M 164.394531 158.34375 " fill-opacity="1" fill-rule="nonzero"/></g></g></g><g clip-path="url(#ed1d79ef7e)"><g clip-path="url(#83a2320a72)"><g clip-path="url(#55a8c85f2f)"><path fill="#737373" d="M 150.976562 113.964844 L 165.253906 143.117188 C 165.425781 143.464844 165.769531 143.730469 166.183594 143.796875 L 174.726562 144.691406 L 183.519531 162.644531 L 177.417969 171.144531 C 177.152344 171.492188 177.105469 171.945312 177.300781 172.339844 L 181.910156 181.75 C 178.375 184.132812 177.035156 188.785156 178.957031 192.707031 C 181.046875 196.976562 186.242188 198.757812 190.511719 196.664062 C 194.78125 194.574219 196.558594 189.378906 194.46875 185.109375 C 192.546875 181.1875 188.046875 179.390625 184 180.726562 L 179.710938 171.96875 L 185.8125 163.46875 C 186.074219 163.121094 186.125 162.667969 185.929688 162.273438 L 176.539062 143.101562 C 176.367188 142.753906 176.023438 142.488281 175.613281 142.421875 L 167.070312 141.527344 L 153.089844 112.984375 C 152.8125 112.417969 152.097656 112.171875 151.53125 112.449219 C 150.941406 112.683594 150.699219 113.398438 150.976562 113.964844 Z M 192.421875 186.113281 C 193.9375 189.207031 192.644531 192.972656 189.550781 194.488281 C 186.457031 196.003906 182.691406 194.710938 181.179688 191.617188 C 179.664062 188.523438 180.953125 184.757812 184.046875 183.242188 C 187.117188 181.683594 190.882812 182.972656 192.421875 186.113281 Z M 192.421875 186.113281 " fill-opacity="1" fill-rule="nonzero"/></g></g></g><g clip-path="url(#9ebf53b8df)"><g clip-path="url(#b028e51a0d)"><g clip-path="url(#450a9dda77)"><path fill="#737373" d="M 163.308594 107.925781 L 171.546875 124.746094 C 171.738281 125.136719 172.125 125.378906 172.515625 125.402344 L 183.40625 126.230469 L 195.828125 151.59375 C 192.292969 153.972656 190.953125 158.625 192.875 162.546875 C 194.964844 166.820312 200.160156 168.597656 204.429688 166.503906 C 208.699219 164.414062 210.476562 159.21875 208.386719 154.949219 C 206.464844 151.027344 201.964844 149.234375 197.917969 150.566406 L 185.195312 124.597656 C 185.003906 124.203125 184.617188 123.960938 184.226562 123.9375 L 173.339844 123.109375 L 165.398438 106.898438 C 165.121094 106.332031 164.40625 106.089844 163.839844 106.367188 C 163.273438 106.644531 163.03125 107.359375 163.308594 107.925781 Z M 206.292969 155.972656 C 207.808594 159.066406 206.519531 162.832031 203.425781 164.347656 C 200.332031 165.863281 196.566406 164.574219 195.050781 161.480469 C 193.535156 158.386719 194.824219 154.621094 197.917969 153.105469 C 200.992188 151.546875 204.757812 152.835938 206.292969 155.972656 Z M 206.292969 155.972656 " fill-opacity="1" fill-rule="nonzero"/></g></g></g><g clip-path="url(#11c499d718)"><g clip-path="url(#e45156fa51)"><g clip-path="url(#5d75ff2f35)"><g clip-path="url(#27027c85d7)"><g clip-path="url(#9563a97255)"><g clip-path="url(#7f5b300c75)"><g clip-path="url(#7d5ce74ab9)"><g clip-path="url(#a757562aa5)"><path fill="#ffffff" d="M 239.957031 226.878906 L 256.011719 219.203125 L 269.800781 248.046875 L 253.75 255.71875 Z M 239.957031 226.878906 " fill-opacity="1" fill-rule="nonzero"/></g></g></g></g></g></g></g></g><g clip-path="url(#968c181881)"><g clip-path="url(#0cd10544bb)"><g clip-path="url(#514175ecad)"><g clip-path="url(#47052d0b9f)"><g clip-path="url(#17b07d331e)"><g clip-path="url(#63c4bfd4f9)"><g clip-path="url(#85cc4f5f83)"><g clip-path="url(#5314e570c0)"><path fill="#ffffff" d="M 232.222656 246.460938 L 262.210938 232.121094 L 269.828125 248.050781 L 239.835938 262.386719 Z M 232.222656 246.460938 " fill-opacity="1" fill-rule="nonzero"/></g></g></g></g></g></g></g></g><g clip-path="url(#356edc3c91)"><g clip-path="url(#bcbc005f6b)"><g clip-path="url(#e64e3ece2b)"><g clip-path="url(#5e5eba1d6b)"><g clip-path="url(#98f8d46093)"><g clip-path="url(#ab21266ee1)"><g clip-path="url(#18d8eac966)"><g clip-path="url(#04dc205fb2)"><path fill="#ffffff" d="M 236.152344 236.640625 L 252.078125 229.023438 L 259.695312 244.949219 L 243.769531 252.566406 Z M 236.152344 236.640625 " fill-opacity="1" fill-rule="nonzero"/></g></g></g></g></g></g></g></g></svg>